HIERARCHY
ROOT hip
{
	OFFSET 0.000000 0.000000 0.000000 
	CHANNELS 6 Xposition Yposition Zposition Xrotation Zrotation Yrotation
	JOINT abdomen
	{
		OFFSET 0.000000 3.402643 0.000000 
		CHANNELS 3 Xrotation Zrotation Yrotation
		JOINT chest
		{
			OFFSET 0.000000 8.438565 -0.680529 
			CHANNELS 3 Xrotation Zrotation Yrotation
			JOINT neck
			{
				OFFSET 0.000000 10.207942 -0.272212 
				CHANNELS 3 Xrotation Zrotation Yrotation
				JOINT head
				{
					OFFSET 0.000000 3.130431 0.000000 
					CHANNELS 3 Xrotation Zrotation Yrotation
					End Site
					{
						OFFSET 0.000000 3.130435 0.000000 
					}
				}
			}
			JOINT lCollar
			{
				OFFSET 3.470700 6.669187 -0.816635 
				CHANNELS 3 Yrotation Zrotation Xrotation
				JOINT lShldr
				{
					OFFSET 3.198488 0.000000 0.000000 
					CHANNELS 3 Zrotation Yrotation Xrotation
					JOINT lForeArm
					{
						OFFSET 10.139888 0.000000 0.000000 
						CHANNELS 3 Yrotation Zrotation Xrotation
						JOINT lHand
						{
							OFFSET 8.370511 0.000000 0.000000 
							CHANNELS 3 Zrotation Yrotation Xrotation
							End Site
							{
								OFFSET 4.083176 0.000000 0.000000 
							}
						}
					}
				}
			}
			JOINT rCollar
			{
				OFFSET -3.470700 6.669187 -0.816635 
				CHANNELS 3 Yrotation Zrotation Xrotation
				JOINT rShldr
				{
					OFFSET -3.198488 0.000000 0.000000 
					CHANNELS 3 Zrotation Yrotation Xrotation
					JOINT rForeArm
					{
						OFFSET -10.139888 0.000000 0.000000 
						CHANNELS 3 Yrotation Zrotation Xrotation
						JOINT rHand
						{
							OFFSET -8.370511 0.000000 0.000000 
							CHANNELS 3 Zrotation Yrotation Xrotation
							End Site
							{
								OFFSET -4.083176 0.000000 0.000000 
							}
						}
					}
				}
			}
		}
	}
	JOINT lThigh
	{
		OFFSET 5.308129 -1.633274 1.361059 
		CHANNELS 3 Xrotation Zrotation Yrotation
		JOINT lShin
		{
			OFFSET -2.041588 -20.007561 0.000000 
			CHANNELS 3 Xrotation Zrotation Yrotation
			JOINT lFoot
			{
				OFFSET 0.000000 -19.190928 -1.224953 
				CHANNELS 3 Xrotation Yrotation Zrotation
				End Site
				{
					OFFSET 0.000000 -2.449906 4.627600 
				}
			}
		}
	}
	JOINT rThigh
	{
		OFFSET -5.308129 -1.633274 1.361059 
		CHANNELS 3 Xrotation Zrotation Yrotation
		JOINT rShin
		{
			OFFSET 2.041588 -20.007561 0.000000 
			CHANNELS 3 Xrotation Zrotation Yrotation
			JOINT rFoot
			{
				OFFSET 0.000000 -19.190928 -1.224953 
				CHANNELS 3 Xrotation Yrotation Zrotation
				End Site
				{
					OFFSET 0.000000 -2.449906 4.627600 
				}
			}
		}
	}
}
MOTION
Frames: 6
Frame Time: 0.033333
-21.674963 43.254189 48.190250 6.662105 -2.663086 2.688089 0.000000 0.000000 0.000000 22.878014 -1.332496 5.147814 -24.642233 -2.021475 -0.176016 -26.761599 -1.510759 -3.556025 -26.065083 8.566968 24.994646 -82.006454 -0.463113 -6.090621 -50.341774 20.725929 45.132458 -13.173669 -8.683047 -56.921341 -5.493110 -1.867788 24.500151 59.375195 -9.017022 67.007271 38.536579 -56.192036 30.593565 56.778442 16.256872 -80.512062 -45.480568 -1.983737 11.272860 66.565132 11.379382 -0.305219 -14.430894 -1.542184 24.958048 -47.560932 -8.836560 0.562672 57.833000 -17.359402 0.504513 18.665926 12.646851 17.690748 
-22.701231 43.534176 49.602051 5.755430 -2.808380 5.690142 0.000000 0.000000 0.000000 20.143606 -2.091141 5.149818 -21.687166 -1.220701 -0.107606 -26.485876 -3.734208 -6.694062 -27.612764 10.665390 24.990227 -80.766045 -5.378889 -6.601625 -54.030113 20.046671 48.409763 -13.480148 -9.314505 -56.948963 -9.842781 -1.599868 24.328081 55.297054 -3.972574 63.715160 46.607597 -55.414555 35.624092 53.314533 12.725730 -81.004898 -43.940868 -1.924005 11.603928 69.089981 13.401894 0.101274 -16.296074 -3.419498 23.474222 -42.072529 -8.768330 0.296678 55.497337 -19.804440 -0.355573 19.932680 19.443518 28.890720 
-23.420437 44.683609 50.850662 4.475851 -2.472165 6.910476 0.000000 0.000000 0.000000 17.865334 -2.908363 5.103956 -20.008646 -0.820312 -0.078257 -26.728201 -4.791080 -8.477892 -27.011686 12.354587 24.990631 -79.894165 -6.669068 -7.017713 -59.615955 16.538815 55.239178 -15.010022 -8.112940 -57.012215 -12.521538 -2.297769 24.042818 50.759949 -0.993280 60.679653 51.510860 -54.614532 37.177029 50.708443 9.409209 -81.386192 -39.197311 -1.005755 12.804993 66.570946 13.926135 0.275668 -16.306726 -6.337447 20.406214 -36.023525 -8.837195 -0.065620 51.742939 -20.221365 -0.843917 18.898138 25.010864 33.057018 
-24.051094 47.487434 52.261669 4.122514 -2.054865 7.006182 0.000000 0.000000 0.000000 13.577827 -3.627762 5.176026 -19.774529 -0.722656 -0.068477 -27.534866 -4.622564 -8.828219 -24.294062 15.164531 24.995275 -80.395615 -3.101367 -6.883557 -68.730049 8.596487 62.730812 -17.907848 -7.097009 -56.764206 -14.701043 -5.551857 23.023750 47.279335 -1.459794 58.751114 57.627937 -54.591637 41.348091 48.955639 8.808277 -81.209320 -29.643209 0.477352 14.856804 54.355957 12.546425 0.448785 -10.043561 -10.878312 17.354671 -27.902100 -9.782674 -0.743482 42.492889 -15.661488 -0.723086 24.352310 27.663315 30.969986 
-24.448664 50.307709 53.306152 5.637848 -2.714531 6.911774 0.000000 0.000000 0.000000 7.845487 -3.431612 5.468456 -19.042627 -0.400391 -0.048895 -26.763105 -4.211110 -8.509860 -21.846443 17.128906 24.994499 -81.051338 3.563641 -6.784229 -75.606171 1.721624 63.415890 -18.221788 -7.763186 -56.563435 -16.394186 -8.561550 21.883993 46.702858 -5.023803 58.691475 63.758305 -54.000046 47.819157 48.188862 10.004467 -80.837036 -21.602978 1.754515 16.285105 39.466042 10.116632 0.607928 2.026289 -13.692062 17.876890 -21.108740 -10.291013 -1.181353 31.909683 -9.475624 -0.347491 28.008097 24.227224 23.950764 
-24.827356 53.548885 54.488766 7.440607 -3.769740 7.105243 0.000000 0.000000 0.000000 0.886775 -3.128791 5.740905 -15.751644 0.605469 0.029398 -24.134396 -4.226129 -8.891819 -19.758497 16.705620 24.995016 -79.652870 13.099832 -8.164721 -81.360870 -4.720673 60.368675 -16.300200 -8.775451 -56.829918 -18.572552 -9.196008 21.288177 44.959984 -9.606011 57.937073 69.155212 -51.036758 53.380737 47.801296 10.180514 -80.848671 -12.658422 2.846315 17.494289 22.183783 6.482857 0.767809 20.377577 -14.038084 17.070494 -12.616693 -10.019192 -1.456664 19.096687 -3.866163 -0.178826 38.082211 18.232054 20.487921 
